<?xml version="1.0" standalone="no"?>
<!DOCTYPE svg PUBLIC "-//W3C//DTD SVG 20010904//EN"
 "http://www.w3.org/TR/2001/REC-SVG-20010904/DTD/svg10.dtd">
<svg version="1.0" xmlns="http://www.w3.org/2000/svg"
 width="400.000000pt" height="400.000000pt" viewBox="0 0 400.000000 400.000000"
 preserveAspectRatio="xMidYMid meet">

<g transform="translate(0.000000,400.000000) scale(0.100000,-0.100000)"
fill="#000000" stroke="none">
<path d="M90 3585 l0 -325 325 0 325 0 0 325 0 325 -325 0 -325 0 0 -325z
m560 -5 l0 -230 -230 0 -230 0 0 230 0 230 230 0 230 0 0 -230z"/>
<path d="M280 3580 l0 -140 140 0 140 0 0 140 0 140 -140 0 -140 0 0 -140z"/>
<path d="M840 3770 l0 -140 45 0 45 0 0 -50 0 -50 140 0 140 0 0 -135 0 -135
-45 0 -45 0 0 90 0 90 -50 0 -50 0 0 -90 0 -90 50 0 50 0 0 -50 0 -50 -95 0
-95 0 0 140 0 140 -45 0 -45 0 0 -230 0 -230 -95 0 -95 0 0 45 0 45 45 0 45 0
0 45 0 45 -45 0 -45 0 0 -45 0 -45 -45 0 -45 0 0 45 0 45 -140 0 -140 0 0 -45
0 -45 -45 0 -45 0 0 -45 0 -45 -50 0 -50 0 0 -50 0 -50 50 0 50 0 0 50 0 50
45 0 45 0 0 -140 0 -140 95 0 95 0 0 -50 0 -50 -50 0 -50 0 0 -45 0 -45 95 0
95 0 0 -45 0 -45 -140 0 -140 0 0 90 0 90 -45 0 -45 0 0 50 0 50 -50 0 -50 0
0 -50 0 -50 50 0 50 0 0 -90 0 -90 -50 0 -50 0 0 -45 0 -45 95 0 95 0 0 -50 0
-50 -95 0 -95 0 0 -45 0 -45 95 0 95 0 0 -185 0 -185 -45 0 -45 0 0 140 0 140
-50 0 -50 0 0 -190 0 -190 50 0 50 0 0 -45 0 -45 -50 0 -50 0 0 -45 0 -45 95
0 95 0 0 -45 0 -45 -45 0 -45 0 0 -50 0 -50 -50 0 -50 0 0 -230 0 -230 50 0
50 0 0 140 0 140 45 0 45 0 0 90 0 90 45 0 45 0 0 -90 0 -90 50 0 50 0 0 140
0 140 45 0 45 0 0 -50 0 -50 45 0 45 0 0 -45 0 -45 95 0 95 0 0 140 0 140 -95
0 -95 0 0 45 0 45 45 0 45 0 0 45 0 45 50 0 50 0 0 -45 0 -45 90 0 90 0 0 95
0 95 -45 0 -45 0 0 -50 0 -50 -45 0 -45 0 0 95 0 95 90 0 90 0 0 45 0 45 -90
0 -90 0 0 50 0 50 45 0 45 0 0 45 0 45 45 0 45 0 0 -45 0 -45 50 0 50 0 0 -95
0 -95 45 0 45 0 0 45 0 45 45 0 45 0 0 -45 0 -45 50 0 50 0 0 -45 0 -45 -50 0
-50 0 0 -95 0 -95 -45 0 -45 0 0 -45 0 -45 -45 0 -45 0 0 -45 0 -45 -50 0 -50
0 0 45 0 45 -45 0 -45 0 0 -45 0 -45 45 0 45 0 0 -50 0 -50 -45 0 -45 0 0 -45
0 -45 95 0 95 0 0 45 0 45 45 0 45 0 0 -45 0 -45 45 0 45 0 0 95 0 95 50 0 50
0 0 45 0 45 45 0 45 0 0 -95 0 -95 -45 0 -45 0 0 -90 0 -90 45 0 45 0 0 -50 0
-50 45 0 45 0 0 -185 0 -185 -45 0 -45 0 0 -45 0 -45 90 0 90 0 0 -45 0 -45
-45 0 -45 0 0 -140 0 -140 45 0 45 0 0 -50 0 -50 50 0 50 0 0 50 0 50 45 0 45
0 0 -50 0 -50 45 0 45 0 0 50 0 50 50 0 50 0 0 45 0 45 -50 0 -50 0 0 140 0
140 50 0 50 0 0 -45 0 -45 45 0 45 0 0 45 0 45 45 0 45 0 0 -45 0 -45 50 0 50
0 0 -50 0 -50 135 0 135 0 0 -90 0 -90 -90 0 -90 0 0 45 0 45 -45 0 -45 0 0
-45 0 -45 45 0 45 0 0 -50 0 -50 90 0 90 0 0 50 0 50 50 0 50 0 0 -50 0 -50
140 0 140 0 0 95 0 95 -50 0 -50 0 0 45 0 45 -45 0 -45 0 0 -45 0 -45 45 0 45
0 0 -45 0 -45 -90 0 -90 0 0 90 0 90 -50 0 -50 0 0 50 0 50 50 0 50 0 0 135 0
135 45 0 45 0 0 50 0 50 -45 0 -45 0 0 -50 0 -50 -50 0 -50 0 0 50 0 50 -45 0
-45 0 0 45 0 45 45 0 45 0 0 95 0 95 95 0 95 0 0 -50 0 -50 -45 0 -45 0 0 -45
0 -45 45 0 45 0 0 45 0 45 45 0 45 0 0 50 0 50 50 0 50 0 0 45 0 45 -50 0 -50
0 0 -45 0 -45 -45 0 -45 0 0 45 0 45 -45 0 -45 0 0 45 0 45 45 0 45 0 0 50 0
50 45 0 45 0 0 -50 0 -50 50 0 50 0 0 50 0 50 -50 0 -50 0 0 90 0 90 50 0 50
0 0 -45 0 -45 45 0 45 0 0 -45 0 -45 45 0 45 0 0 45 0 45 95 0 95 0 0 -45 0
-45 -45 0 -45 0 0 -50 0 -50 -50 0 -50 0 0 -45 0 -45 50 0 50 0 0 -45 0 -45
-50 0 -50 0 0 -95 0 -95 -45 0 -45 0 0 -95 0 -95 -45 0 -45 0 0 50 0 50 -50 0
-50 0 0 -95 0 -95 50 0 50 0 0 -45 0 -45 -50 0 -50 0 0 -45 0 -45 50 0 50 0 0
45 0 45 45 0 45 0 0 -45 0 -45 45 0 45 0 0 -50 0 -50 -45 0 -45 0 0 -90 0 -90
45 0 45 0 0 90 0 90 50 0 50 0 0 -90 0 -90 185 0 185 0 0 -50 0 -50 45 0 45 0
0 50 0 50 45 0 45 0 0 90 0 90 50 0 50 0 0 95 0 95 -140 0 -140 0 0 45 0 45
-50 0 -50 0 0 45 0 45 50 0 50 0 0 140 0 140 45 0 45 0 0 50 0 50 45 0 45 0 0
45 0 45 -45 0 -45 0 0 45 0 45 95 0 95 0 0 50 0 50 -95 0 -95 0 0 45 0 45 95
0 95 0 0 45 0 45 -95 0 -95 0 0 45 0 45 -45 0 -45 0 0 50 0 50 90 0 90 0 0 45
0 45 50 0 50 0 0 45 0 45 -50 0 -50 0 0 50 0 50 50 0 50 0 0 45 0 45 -50 0
-50 0 0 45 0 45 50 0 50 0 0 95 0 95 -50 0 -50 0 0 -95 0 -95 -90 0 -90 0 0
50 0 50 -50 0 -50 0 0 45 0 45 -45 0 -45 0 0 -95 0 -95 -45 0 -45 0 0 50 0 50
-45 0 -45 0 0 45 0 45 45 0 45 0 0 45 0 45 -45 0 -45 0 0 -45 0 -45 -50 0 -50
0 0 90 0 90 50 0 50 0 0 95 0 95 -50 0 -50 0 0 45 0 45 -90 0 -90 0 0 50 0 50
45 0 45 0 0 45 0 45 95 0 95 0 0 -95 0 -95 45 0 45 0 0 -45 0 -45 45 0 45 0 0
-45 0 -45 -45 0 -45 0 0 -50 0 -50 45 0 45 0 0 -45 0 -45 45 0 45 0 0 140 0
140 -45 0 -45 0 0 45 0 45 45 0 45 0 0 95 0 95 -45 0 -45 0 0 45 0 45 -140 0
-140 0 0 185 0 185 -45 0 -45 0 0 50 0 50 45 0 45 0 0 90 0 90 -45 0 -45 0 0
50 0 50 -45 0 -45 0 0 -50 0 -50 -50 0 -50 0 0 -185 0 -185 50 0 50 0 0 45 0
45 45 0 45 0 0 -185 0 -185 -45 0 -45 0 0 95 0 95 -50 0 -50 0 0 -95 0 -95
-45 0 -45 0 0 95 0 95 -45 0 -45 0 0 45 0 45 45 0 45 0 0 45 0 45 -95 0 -95 0
0 50 0 50 50 0 50 0 0 45 0 45 45 0 45 0 0 95 0 95 -45 0 -45 0 0 -50 0 -50
-50 0 -50 0 0 50 0 50 -90 0 -90 0 0 -140 0 -140 -95 0 -95 0 0 45 0 45 -45 0
-45 0 0 45 0 45 95 0 95 0 0 50 0 50 -190 0 -190 0 0 -50 0 -50 -90 0 -90 0 0
50 0 50 -50 0 -50 0 0 -50 0 -50 50 0 50 0 0 -140 0 -140 -50 0 -50 0 0 -45 0
-45 -45 0 -45 0 0 -230 0 -230 45 0 45 0 0 -50 0 -50 -45 0 -45 0 0 -90 0 -90
45 0 45 0 0 90 0 90 50 0 50 0 0 -45 0 -45 45 0 45 0 0 -45 0 -45 45 0 45 0 0
-50 0 -50 -45 0 -45 0 0 -45 0 -45 45 0 45 0 0 45 0 45 50 0 50 0 0 -45 0 -45
45 0 45 0 0 -45 0 -45 -95 0 -95 0 0 -185 0 -185 -90 0 -90 0 0 45 0 45 45 0
45 0 0 45 0 45 -45 0 -45 0 0 50 0 50 45 0 45 0 0 45 0 45 -95 0 -95 0 0 -45
0 -45 -135 0 -135 0 0 45 0 45 45 0 45 0 0 45 0 45 140 0 140 0 0 45 0 45
-140 0 -140 0 0 50 0 50 -45 0 -45 0 0 -50 0 -50 45 0 45 0 0 -45 0 -45 -45 0
-45 0 0 -45 0 -45 -50 0 -50 0 0 -45 0 -45 -45 0 -45 0 0 45 0 45 -45 0 -45 0
0 45 0 45 -50 0 -50 0 0 -90 0 -90 -90 0 -90 0 0 -50 0 -50 45 0 45 0 0 -45 0
-45 -95 0 -95 0 0 45 0 45 -90 0 -90 0 0 -45 0 -45 90 0 90 0 0 -45 0 -45 -90
0 -90 0 0 -50 0 -50 -45 0 -45 0 0 -45 0 -45 45 0 45 0 0 -45 0 -45 -95 0 -95
0 0 140 0 140 50 0 50 0 0 45 0 45 -95 0 -95 0 0 45 0 45 45 0 45 0 0 50 0 50
95 0 95 0 0 45 0 45 45 0 45 0 0 -45 0 -45 45 0 45 0 0 45 0 45 95 0 95 0 0
90 0 90 140 0 140 0 0 -45 0 -45 45 0 45 0 0 45 0 45 -45 0 -45 0 0 50 0 50
45 0 45 0 0 45 0 45 95 0 95 0 0 45 0 45 -45 0 -45 0 0 50 0 50 45 0 45 0 0
45 0 45 -45 0 -45 0 0 -45 0 -45 -50 0 -50 0 0 45 0 45 -90 0 -90 0 0 45 0 45
45 0 45 0 0 50 0 50 45 0 45 0 0 45 0 45 50 0 50 0 0 -95 0 -95 45 0 45 0 0
235 0 235 -45 0 -45 0 0 45 0 45 -50 0 -50 0 0 45 0 45 50 0 50 0 0 50 0 50
-50 0 -50 0 0 -50 0 -50 -45 0 -45 0 0 50 0 50 -185 0 -185 0 0 -140z m180
-50 l0 -90 -45 0 -45 0 0 90 0 90 45 0 45 0 0 -90z m1030 45 l0 -45 45 0 45 0
0 -45 0 -45 45 0 45 0 0 -95 0 -95 140 0 140 0 0 45 0 45 -45 0 -45 0 0 50 0
50 45 0 45 0 0 45 0 45 45 0 45 0 0 -45 0 -45 -45 0 -45 0 0 -50 0 -50 45 0
45 0 0 -45 0 -45 -45 0 -45 0 0 -90 0 -90 45 0 45 0 0 45 0 45 50 0 50 0 0
-45 0 -45 -50 0 -50 0 0 -50 0 -50 -45 0 -45 0 0 -45 0 -45 140 0 140 0 0 -45
0 -45 45 0 45 0 0 45 0 45 50 0 50 0 0 -45 0 -45 -50 0 -50 0 0 -50 0 -50 50
0 50 0 0 -45 0 -45 45 0 45 0 0 -45 0 -45 45 0 45 0 0 -50 0 -50 -45 0 -45 0
0 -45 0 -45 -95 0 -95 0 0 -45 0 -45 -45 0 -45 0 0 -45 0 -45 -45 0 -45 0 0
-50 0 -50 45 0 45 0 0 -45 0 -45 -45 0 -45 0 0 45 0 45 -50 0 -50 0 0 -45 0
-45 -45 0 -45 0 0 95 0 95 -90 0 -90 0 0 -50 0 -50 -50 0 -50 0 0 50 0 50 -45
0 -45 0 0 45 0 45 45 0 45 0 0 45 0 45 50 0 50 0 0 -45 0 -45 90 0 90 0 0 -45
0 -45 95 0 95 0 0 90 0 90 45 0 45 0 0 45 0 45 -45 0 -45 0 0 50 0 50 45 0 45
0 0 45 0 45 -95 0 -95 0 0 45 0 45 -45 0 -45 0 0 -45 0 -45 -45 0 -45 0 0 45
0 45 45 0 45 0 0 95 0 95 -45 0 -45 0 0 -45 0 -45 -95 0 -95 0 0 -50 0 -50 50
0 50 0 0 -90 0 -90 45 0 45 0 0 -50 0 -50 -45 0 -45 0 0 50 0 50 -50 0 -50 0
0 -50 0 -50 -45 0 -45 0 0 190 0 190 -140 0 -140 0 0 -50 0 -50 95 0 95 0 0
-45 0 -45 -95 0 -95 0 0 45 0 45 -45 0 -45 0 0 50 0 50 -50 0 -50 0 0 45 0 45
50 0 50 0 0 45 0 45 -50 0 -50 0 0 140 0 140 140 0 140 0 0 45 0 45 -45 0 -45
0 0 50 0 50 45 0 45 0 0 90 0 90 50 0 50 0 0 -45z m1020 -45 l0 -90 -45 0 -45
0 0 90 0 90 45 0 45 0 0 -90z m-1770 -45 l0 -45 50 0 50 0 0 -95 0 -95 -50 0
-50 0 0 95 0 95 -45 0 -45 0 0 45 0 45 45 0 45 0 0 -45z m-930 -650 l0 -45
-45 0 -45 0 0 45 0 45 45 0 45 0 0 -45z m190 0 l0 -45 45 0 45 0 0 -50 0 -50
95 0 95 0 0 50 0 50 230 0 230 0 0 -95 0 -95 -140 0 -140 0 0 45 0 45 -90 0
-90 0 0 -45 0 -45 45 0 45 0 0 -45 0 -45 -95 0 -95 0 0 -50 0 -50 50 0 50 0 0
-45 0 -45 -50 0 -50 0 0 -45 0 -45 -45 0 -45 0 0 45 0 45 45 0 45 0 0 45 0 45
-45 0 -45 0 0 50 0 50 45 0 45 0 0 45 0 45 -45 0 -45 0 0 45 0 45 -45 0 -45 0
0 -45 0 -45 -95 0 -95 0 0 45 0 45 95 0 95 0 0 50 0 50 -45 0 -45 0 0 45 0 45
45 0 45 0 0 -45z m2040 -375 l0 -50 -45 0 -45 0 0 50 0 50 45 0 45 0 0 -50z
m560 -275 l0 -45 50 0 50 0 0 -50 0 -50 45 0 45 0 0 -45 0 -45 90 0 90 0 0
-95 0 -95 -90 0 -90 0 0 -140 0 -140 45 0 45 0 0 95 0 95 95 0 95 0 0 -45 0
-45 -50 0 -50 0 0 -50 0 -50 50 0 50 0 0 -45 0 -45 45 0 45 0 0 -45 0 -45 -45
0 -45 0 0 45 0 45 -235 0 -235 0 0 -45 0 -45 -45 0 -45 0 0 45 0 45 -45 0 -45
0 0 45 0 45 -140 0 -140 0 0 95 0 95 45 0 45 0 0 95 0 95 95 0 95 0 0 45 0 45
-50 0 -50 0 0 95 0 95 50 0 50 0 0 45 0 45 90 0 90 0 0 -45z m-1860 -190 l0
-45 50 0 50 0 0 45 0 45 135 0 135 0 0 -45 0 -45 -45 0 -45 0 0 -95 0 -95 -45
0 -45 0 0 -45 0 -45 45 0 45 0 0 -45 0 -45 95 0 95 0 0 90 0 90 90 0 90 0 0
-45 0 -45 95 0 95 0 0 95 0 95 45 0 45 0 0 45 0 45 50 0 50 0 0 -45 0 -45 45
0 45 0 0 -50 0 -50 45 0 45 0 0 -45 0 -45 45 0 45 0 0 -45 0 -45 -90 0 -90 0
0 90 0 90 -45 0 -45 0 0 50 0 50 -50 0 -50 0 0 -140 0 -140 -185 0 -185 0 0
-185 0 -185 -45 0 -45 0 0 -50 0 -50 -95 0 -95 0 0 50 0 50 45 0 45 0 0 45 0
45 -90 0 -90 0 0 90 0 90 -45 0 -45 0 0 50 0 50 45 0 45 0 0 45 0 45 -45 0
-45 0 0 45 0 45 -50 0 -50 0 0 95 0 95 -45 0 -45 0 0 -45 0 -45 -45 0 -45 0 0
45 0 45 -50 0 -50 0 0 45 0 45 140 0 140 0 0 -45z m840 0 l0 -45 -45 0 -45 0
0 45 0 45 45 0 45 0 0 -45z m1580 -90 l0 -45 -45 0 -45 0 0 45 0 45 45 0 45 0
0 -45z m-1020 -95 l0 -50 -50 0 -50 0 0 50 0 50 50 0 50 0 0 -50z m-1860 -95
l0 -45 -95 0 -95 0 0 45 0 45 95 0 95 0 0 -45z m2970 0 l0 -45 -45 0 -45 0 0
45 0 45 45 0 45 0 0 -45z m-3440 -185 l0 -50 140 0 140 0 0 50 0 50 45 0 45 0
0 -50 0 -50 -45 0 -45 0 0 -45 0 -45 -90 0 -90 0 0 -90 0 -90 -50 0 -50 0 0
90 0 90 -45 0 -45 0 0 95 0 95 45 0 45 0 0 -50z m1770 -95 l0 -45 45 0 45 0 0
-45 0 -45 50 0 50 0 0 90 0 90 45 0 45 0 0 -135 0 -135 -45 0 -45 0 0 -95 0
-95 90 0 90 0 0 230 0 230 45 0 45 0 0 -45 0 -45 95 0 95 0 0 -45 0 -45 -95 0
-95 0 0 -140 0 -140 -45 0 -45 0 0 -95 0 -95 -90 0 -90 0 0 -45 0 -45 45 0 45
0 0 -45 0 -45 45 0 45 0 0 -95 0 -95 45 0 45 0 0 -90 0 -90 -135 0 -135 0 0
45 0 45 -50 0 -50 0 0 45 0 45 50 0 50 0 0 -45 0 -45 45 0 45 0 0 140 0 140
-45 0 -45 0 0 -50 0 -50 -50 0 -50 0 0 50 0 50 -45 0 -45 0 0 -50 0 -50 -185
0 -185 0 0 95 0 95 -50 0 -50 0 0 45 0 45 -45 0 -45 0 0 95 0 95 95 0 95 0 0
-45 0 -45 90 0 90 0 0 45 0 45 95 0 95 0 0 45 0 45 -95 0 -95 0 0 50 0 50 50
0 50 0 0 45 0 45 -50 0 -50 0 0 90 0 90 95 0 95 0 0 -45z m-740 -90 l0 -45
-50 0 -50 0 0 45 0 45 50 0 50 0 0 -45z m-660 -185 l0 -50 -45 0 -45 0 0 50 0
50 45 0 45 0 0 -50z m2700 -45 l0 -95 -90 0 -90 0 0 45 0 45 45 0 45 0 0 50 0
50 45 0 45 0 0 -95z m280 45 l0 -50 -95 0 -95 0 0 50 0 50 95 0 95 0 0 -50z
m0 -185 l0 -45 -45 0 -45 0 0 45 0 45 45 0 45 0 0 -45z m-280 -140 l0 -95 -90
0 -90 0 0 95 0 95 90 0 90 0 0 -95z m0 -325 l0 -140 -140 0 -140 0 0 140 0
140 140 0 140 0 0 -140z m-1670 -95 l0 -45 -50 0 -50 0 0 45 0 45 50 0 50 0 0
-45z m180 0 l0 -45 -45 0 -45 0 0 45 0 45 45 0 45 0 0 -45z m190 0 l0 -45 -45
0 -45 0 0 45 0 45 45 0 45 0 0 -45z m1490 -90 l0 -45 90 0 90 0 0 -50 0 -50
-185 0 -185 0 0 -45 0 -45 -45 0 -45 0 0 45 0 45 -45 0 -45 0 0 50 0 50 45 0
45 0 0 -50 0 -50 45 0 45 0 0 50 0 50 45 0 45 0 0 45 0 45 50 0 50 0 0 -45z
m-1860 -95 l0 -50 45 0 45 0 0 -45 0 -45 -95 0 -95 0 0 95 0 95 50 0 50 0 0
-50z m1950 -185 l0 -45 -45 0 -45 0 0 45 0 45 45 0 45 0 0 -45z"/>
<path d="M2050 3580 l0 -50 45 0 45 0 0 50 0 50 -45 0 -45 0 0 -50z"/>
<path d="M1950 3350 l0 -90 -45 0 -45 0 0 45 0 45 -45 0 -45 0 0 -45 0 -45 45
0 45 0 0 -50 0 -50 45 0 45 0 0 50 0 50 50 0 50 0 0 -95 0 -95 90 0 90 0 0
185 0 185 -45 0 -45 0 0 -90 0 -90 -45 0 -45 0 0 90 0 90 -50 0 -50 0 0 -90z"/>
<path d="M2330 3305 l0 -45 45 0 45 0 0 -50 0 -50 45 0 45 0 0 50 0 50 -45 0
-45 0 0 45 0 45 -45 0 -45 0 0 -45z"/>
<path d="M1770 3025 l0 -45 45 0 45 0 0 45 0 45 -45 0 -45 0 0 -45z"/>
<path d="M2600 2930 l0 -50 50 0 50 0 0 50 0 50 -50 0 -50 0 0 -50z"/>
<path d="M2880 2650 l0 -50 95 0 95 0 0 50 0 50 -95 0 -95 0 0 -50z"/>
<path d="M2980 2280 l0 -50 45 0 45 0 0 -45 0 -45 95 0 95 0 0 45 0 45 -50 0
-50 0 0 50 0 50 -90 0 -90 0 0 -50z"/>
<path d="M2880 1905 l0 -45 -45 0 -45 0 0 -45 0 -45 95 0 95 0 0 90 0 90 -50
0 -50 0 0 -45z"/>
<path d="M3070 1905 l0 -45 45 0 45 0 0 -95 0 -95 -45 0 -45 0 0 -45 0 -45 45
0 45 0 0 45 0 45 50 0 50 0 0 140 0 140 -95 0 -95 0 0 -45z"/>
<path d="M1400 2000 l0 -50 45 0 45 0 0 50 0 50 -45 0 -45 0 0 -50z"/>
<path d="M1490 1720 l0 -50 45 0 45 0 0 -45 0 -45 45 0 45 0 0 45 0 45 -45 0
-45 0 0 50 0 50 -45 0 -45 0 0 -50z"/>
<path d="M2140 1350 l0 -50 45 0 45 0 0 50 0 50 -45 0 -45 0 0 -50z"/>
<path d="M2230 1165 l0 -45 50 0 50 0 0 45 0 45 -50 0 -50 0 0 -45z"/>
<path d="M1670 1070 l0 -50 50 0 50 0 0 -45 0 -45 45 0 45 0 0 -45 0 -45 140
0 140 0 0 90 0 90 -45 0 -45 0 0 -45 0 -45 -50 0 -50 0 0 45 0 45 -90 0 -90 0
0 50 0 50 -50 0 -50 0 0 -50z"/>
<path d="M3260 695 l0 -45 45 0 45 0 0 45 0 45 -45 0 -45 0 0 -45z"/>
<path d="M3260 3585 l0 -325 325 0 325 0 0 325 0 325 -325 0 -325 0 0 -325z
m550 -5 l0 -230 -230 0 -230 0 0 230 0 230 230 0 230 0 0 -230z"/>
<path d="M3440 3580 l0 -140 140 0 140 0 0 140 0 140 -140 0 -140 0 0 -140z"/>
<path d="M3630 3115 l0 -45 45 0 45 0 0 -45 0 -45 -45 0 -45 0 0 -50 0 -50 90
0 90 0 0 50 0 50 50 0 50 0 0 90 0 90 -140 0 -140 0 0 -45z"/>
<path d="M3720 2650 l0 -50 -45 0 -45 0 0 -45 0 -45 90 0 90 0 0 95 0 95 -45
0 -45 0 0 -50z"/>
<path d="M1120 1720 l0 -50 45 0 45 0 0 50 0 50 -45 0 -45 0 0 -50z"/>
<path d="M650 1070 l0 -50 -140 0 -140 0 0 -45 0 -45 -45 0 -45 0 0 -45 0 -45
45 0 45 0 0 45 0 45 50 0 50 0 0 -45 0 -45 45 0 45 0 0 45 0 45 45 0 45 0 0
-45 0 -45 95 0 95 0 0 -50 0 -50 45 0 45 0 0 50 0 50 45 0 45 0 0 -95 0 -95
50 0 50 0 0 -45 0 -45 45 0 45 0 0 -45 0 -45 -45 0 -45 0 0 -50 0 -50 -50 0
-50 0 0 50 0 50 -45 0 -45 0 0 45 0 45 -45 0 -45 0 0 -140 0 -140 45 0 45 0 0
45 0 45 45 0 45 0 0 -90 0 -90 -45 0 -45 0 0 -50 0 -50 95 0 95 0 0 50 0 50
90 0 90 0 0 90 0 90 50 0 50 0 0 -90 0 -90 45 0 45 0 0 140 0 140 -95 0 -95 0
0 45 0 45 50 0 50 0 0 45 0 45 -50 0 -50 0 0 95 0 95 50 0 50 0 0 90 0 90
-140 0 -140 0 0 50 0 50 -50 0 -50 0 0 -50 0 -50 -45 0 -45 0 0 50 0 50 -45 0
-45 0 0 -50 0 -50 -50 0 -50 0 0 50 0 50 -45 0 -45 0 0 -50z m90 -95 l0 -45
-45 0 -45 0 0 45 0 45 45 0 45 0 0 -45z m190 -45 l0 -90 -45 0 -45 0 0 90 0
90 45 0 45 0 0 -90z m280 -45 l0 -45 -95 0 -95 0 0 45 0 45 95 0 95 0 0 -45z
m0 -190 l0 -45 45 0 45 0 0 -45 0 -45 -45 0 -45 0 0 45 0 45 -45 0 -45 0 0 45
0 45 45 0 45 0 0 -45z m0 -370 l0 -45 -45 0 -45 0 0 45 0 45 45 0 45 0 0 -45z"/>
<path d="M3720 885 l0 -45 45 0 45 0 0 -50 0 -50 -45 0 -45 0 0 -45 0 -45 45
0 45 0 0 45 0 45 50 0 50 0 0 50 0 50 -50 0 -50 0 0 45 0 45 -45 0 -45 0 0
-45z"/>
<path d="M90 415 l0 -325 325 0 325 0 0 325 0 325 -325 0 -325 0 0 -325z m560
5 l0 -230 -230 0 -230 0 0 230 0 230 230 0 230 0 0 -230z"/>
<path d="M280 420 l0 -140 140 0 140 0 0 140 0 140 -140 0 -140 0 0 -140z"/>
<path d="M2140 280 l0 -90 45 0 45 0 0 90 0 90 -45 0 -45 0 0 -90z"/>
</g>
</svg>
